<mxfile host="app.diagrams.net" agent="Mozilla/5.0 (Windows NT 10.0; Win64; x64) AppleWebKit/537.36 (KHTML, like Gecko) Chrome/136.0.0.0 Safari/537.36" version="26.2.14" pages="2">
  <diagram id="C5RBs43oDa-KdzZeNtuy" name="Page-1">
    <mxGraphModel dx="783" dy="537" grid="1" gridSize="10" guides="1" tooltips="1" connect="1" arrows="1" fold="1" page="1" pageScale="1" pageWidth="827" pageHeight="1169" math="0" shadow="0">
      <root>
        <mxCell id="WIyWlLk6GJQsqaUBKTNV-0" />
        <mxCell id="WIyWlLk6GJQsqaUBKTNV-1" parent="WIyWlLk6GJQsqaUBKTNV-0" />
        <mxCell id="3r4ACdRN58zE3fDTOP2z-26" style="edgeStyle=orthogonalEdgeStyle;rounded=0;orthogonalLoop=1;jettySize=auto;html=1;exitX=0.5;exitY=1;exitDx=0;exitDy=0;entryX=0.5;entryY=0;entryDx=0;entryDy=0;" parent="WIyWlLk6GJQsqaUBKTNV-1" source="WIyWlLk6GJQsqaUBKTNV-3" target="WIyWlLk6GJQsqaUBKTNV-6" edge="1">
          <mxGeometry relative="1" as="geometry" />
        </mxCell>
        <mxCell id="WIyWlLk6GJQsqaUBKTNV-3" value="input" style="rounded=1;whiteSpace=wrap;html=1;fontSize=12;glass=0;strokeWidth=1;shadow=0;" parent="WIyWlLk6GJQsqaUBKTNV-1" vertex="1">
          <mxGeometry x="170" y="40" width="120" height="40" as="geometry" />
        </mxCell>
        <mxCell id="3r4ACdRN58zE3fDTOP2z-27" value="" style="edgeStyle=orthogonalEdgeStyle;rounded=0;orthogonalLoop=1;jettySize=auto;exitX=1;exitY=0.5;exitDx=0;exitDy=0;entryX=0;entryY=0.5;entryDx=0;entryDy=0;textShadow=0;labelBorderColor=none;html=1;strokeColor=default;" parent="WIyWlLk6GJQsqaUBKTNV-1" source="WIyWlLk6GJQsqaUBKTNV-6" target="WIyWlLk6GJQsqaUBKTNV-7" edge="1">
          <mxGeometry relative="1" as="geometry" />
        </mxCell>
        <mxCell id="3r4ACdRN58zE3fDTOP2z-28" style="edgeStyle=orthogonalEdgeStyle;rounded=0;orthogonalLoop=1;jettySize=auto;html=1;exitX=0.5;exitY=1;exitDx=0;exitDy=0;entryX=0.5;entryY=0;entryDx=0;entryDy=0;" parent="WIyWlLk6GJQsqaUBKTNV-1" source="WIyWlLk6GJQsqaUBKTNV-6" target="3r4ACdRN58zE3fDTOP2z-0" edge="1">
          <mxGeometry relative="1" as="geometry" />
        </mxCell>
        <mxCell id="WIyWlLk6GJQsqaUBKTNV-6" value="elegir el modo" style="rhombus;whiteSpace=wrap;html=1;shadow=0;fontFamily=Helvetica;fontSize=12;align=center;strokeWidth=1;spacing=6;spacingTop=-4;" parent="WIyWlLk6GJQsqaUBKTNV-1" vertex="1">
          <mxGeometry x="180" y="120" width="100" height="80" as="geometry" />
        </mxCell>
        <mxCell id="3r4ACdRN58zE3fDTOP2z-48" style="edgeStyle=orthogonalEdgeStyle;rounded=0;orthogonalLoop=1;jettySize=auto;html=1;exitX=1;exitY=0.5;exitDx=0;exitDy=0;entryX=0;entryY=0.5;entryDx=0;entryDy=0;" parent="WIyWlLk6GJQsqaUBKTNV-1" source="WIyWlLk6GJQsqaUBKTNV-7" target="3r4ACdRN58zE3fDTOP2z-43" edge="1">
          <mxGeometry relative="1" as="geometry" />
        </mxCell>
        <mxCell id="WIyWlLk6GJQsqaUBKTNV-7" value="Preguntas libres" style="rounded=1;whiteSpace=wrap;html=1;fontSize=12;glass=0;strokeWidth=1;shadow=0;" parent="WIyWlLk6GJQsqaUBKTNV-1" vertex="1">
          <mxGeometry x="460" y="140" width="120" height="40" as="geometry" />
        </mxCell>
        <mxCell id="3r4ACdRN58zE3fDTOP2z-32" style="edgeStyle=orthogonalEdgeStyle;rounded=0;orthogonalLoop=1;jettySize=auto;html=1;exitX=0.5;exitY=1;exitDx=0;exitDy=0;entryX=0.5;entryY=0;entryDx=0;entryDy=0;" parent="WIyWlLk6GJQsqaUBKTNV-1" source="WIyWlLk6GJQsqaUBKTNV-11" target="3r4ACdRN58zE3fDTOP2z-6" edge="1">
          <mxGeometry relative="1" as="geometry" />
        </mxCell>
        <mxCell id="WIyWlLk6GJQsqaUBKTNV-11" value="Recibir feedbak" style="rounded=1;whiteSpace=wrap;html=1;fontSize=12;glass=0;strokeWidth=1;shadow=0;" parent="WIyWlLk6GJQsqaUBKTNV-1" vertex="1">
          <mxGeometry x="170" y="440" width="120" height="40" as="geometry" />
        </mxCell>
        <mxCell id="3r4ACdRN58zE3fDTOP2z-29" style="edgeStyle=orthogonalEdgeStyle;rounded=0;orthogonalLoop=1;jettySize=auto;html=1;exitX=0.5;exitY=1;exitDx=0;exitDy=0;entryX=0.5;entryY=0;entryDx=0;entryDy=0;" parent="WIyWlLk6GJQsqaUBKTNV-1" source="3r4ACdRN58zE3fDTOP2z-0" target="3r4ACdRN58zE3fDTOP2z-2" edge="1">
          <mxGeometry relative="1" as="geometry" />
        </mxCell>
        <mxCell id="3r4ACdRN58zE3fDTOP2z-0" value="examenes por niveles" style="rounded=1;whiteSpace=wrap;html=1;fontSize=12;glass=0;strokeWidth=1;shadow=0;" parent="WIyWlLk6GJQsqaUBKTNV-1" vertex="1">
          <mxGeometry x="180" y="240" width="100" height="40" as="geometry" />
        </mxCell>
        <mxCell id="3r4ACdRN58zE3fDTOP2z-31" style="edgeStyle=orthogonalEdgeStyle;rounded=0;orthogonalLoop=1;jettySize=auto;html=1;exitX=0.5;exitY=1;exitDx=0;exitDy=0;entryX=0.5;entryY=0;entryDx=0;entryDy=0;" parent="WIyWlLk6GJQsqaUBKTNV-1" source="3r4ACdRN58zE3fDTOP2z-2" target="WIyWlLk6GJQsqaUBKTNV-11" edge="1">
          <mxGeometry relative="1" as="geometry" />
        </mxCell>
        <mxCell id="3r4ACdRN58zE3fDTOP2z-44" style="edgeStyle=orthogonalEdgeStyle;rounded=0;orthogonalLoop=1;jettySize=auto;html=1;exitX=1;exitY=0.5;exitDx=0;exitDy=0;entryX=0.171;entryY=0.984;entryDx=0;entryDy=0;entryPerimeter=0;" parent="WIyWlLk6GJQsqaUBKTNV-1" source="3r4ACdRN58zE3fDTOP2z-2" target="WIyWlLk6GJQsqaUBKTNV-7" edge="1">
          <mxGeometry relative="1" as="geometry">
            <Array as="points">
              <mxPoint x="480" y="360" />
              <mxPoint x="480" y="180" />
              <mxPoint x="481" y="180" />
            </Array>
          </mxGeometry>
        </mxCell>
        <mxCell id="3r4ACdRN58zE3fDTOP2z-2" value="aprobo todos" style="rhombus;whiteSpace=wrap;html=1;shadow=0;fontFamily=Helvetica;fontSize=12;align=center;strokeWidth=1;spacing=6;spacingTop=-4;" parent="WIyWlLk6GJQsqaUBKTNV-1" vertex="1">
          <mxGeometry x="180" y="320" width="100" height="80" as="geometry" />
        </mxCell>
        <mxCell id="3r4ACdRN58zE3fDTOP2z-33" style="edgeStyle=orthogonalEdgeStyle;rounded=0;orthogonalLoop=1;jettySize=auto;html=1;exitX=0;exitY=0.5;exitDx=0;exitDy=0;entryX=0;entryY=0.5;entryDx=0;entryDy=0;" parent="WIyWlLk6GJQsqaUBKTNV-1" source="3r4ACdRN58zE3fDTOP2z-6" target="3r4ACdRN58zE3fDTOP2z-0" edge="1">
          <mxGeometry relative="1" as="geometry">
            <Array as="points">
              <mxPoint x="120" y="560" />
              <mxPoint x="120" y="260" />
            </Array>
          </mxGeometry>
        </mxCell>
        <mxCell id="3r4ACdRN58zE3fDTOP2z-34" style="edgeStyle=orthogonalEdgeStyle;rounded=0;orthogonalLoop=1;jettySize=auto;html=1;exitX=0.5;exitY=1;exitDx=0;exitDy=0;entryX=0.5;entryY=0;entryDx=0;entryDy=0;" parent="WIyWlLk6GJQsqaUBKTNV-1" source="3r4ACdRN58zE3fDTOP2z-6" target="3r4ACdRN58zE3fDTOP2z-8" edge="1">
          <mxGeometry relative="1" as="geometry" />
        </mxCell>
        <mxCell id="3r4ACdRN58zE3fDTOP2z-6" value="Repetir el examen" style="rhombus;whiteSpace=wrap;html=1;shadow=0;fontFamily=Helvetica;fontSize=12;align=center;strokeWidth=1;spacing=6;spacingTop=-4;" parent="WIyWlLk6GJQsqaUBKTNV-1" vertex="1">
          <mxGeometry x="180" y="520" width="100" height="80" as="geometry" />
        </mxCell>
        <mxCell id="3r4ACdRN58zE3fDTOP2z-35" style="edgeStyle=orthogonalEdgeStyle;rounded=0;orthogonalLoop=1;jettySize=auto;html=1;exitX=0.5;exitY=1;exitDx=0;exitDy=0;" parent="WIyWlLk6GJQsqaUBKTNV-1" source="3r4ACdRN58zE3fDTOP2z-8" target="3r4ACdRN58zE3fDTOP2z-9" edge="1">
          <mxGeometry relative="1" as="geometry" />
        </mxCell>
        <mxCell id="3r4ACdRN58zE3fDTOP2z-8" value="generar plan de estudio" style="rounded=1;whiteSpace=wrap;html=1;fontSize=12;glass=0;strokeWidth=1;shadow=0;" parent="WIyWlLk6GJQsqaUBKTNV-1" vertex="1">
          <mxGeometry x="170" y="640" width="120" height="40" as="geometry" />
        </mxCell>
        <mxCell id="3r4ACdRN58zE3fDTOP2z-36" style="edgeStyle=orthogonalEdgeStyle;rounded=0;orthogonalLoop=1;jettySize=auto;html=1;exitX=0.5;exitY=1;exitDx=0;exitDy=0;" parent="WIyWlLk6GJQsqaUBKTNV-1" source="3r4ACdRN58zE3fDTOP2z-9" target="3r4ACdRN58zE3fDTOP2z-14" edge="1">
          <mxGeometry relative="1" as="geometry" />
        </mxCell>
        <mxCell id="3r4ACdRN58zE3fDTOP2z-9" value="Explicacion tema a tema" style="rounded=1;whiteSpace=wrap;html=1;fontSize=12;glass=0;strokeWidth=1;shadow=0;" parent="WIyWlLk6GJQsqaUBKTNV-1" vertex="1">
          <mxGeometry x="170" y="720" width="120" height="40" as="geometry" />
        </mxCell>
        <mxCell id="3r4ACdRN58zE3fDTOP2z-37" style="edgeStyle=orthogonalEdgeStyle;rounded=0;orthogonalLoop=1;jettySize=auto;html=1;exitX=0.5;exitY=1;exitDx=0;exitDy=0;entryX=0.5;entryY=0;entryDx=0;entryDy=0;" parent="WIyWlLk6GJQsqaUBKTNV-1" source="3r4ACdRN58zE3fDTOP2z-14" target="3r4ACdRN58zE3fDTOP2z-18" edge="1">
          <mxGeometry relative="1" as="geometry" />
        </mxCell>
        <mxCell id="3r4ACdRN58zE3fDTOP2z-40" style="edgeStyle=orthogonalEdgeStyle;rounded=0;orthogonalLoop=1;jettySize=auto;html=1;exitX=1;exitY=0.5;exitDx=0;exitDy=0;entryX=0;entryY=0.5;entryDx=0;entryDy=0;" parent="WIyWlLk6GJQsqaUBKTNV-1" source="3r4ACdRN58zE3fDTOP2z-14" target="3r4ACdRN58zE3fDTOP2z-15" edge="1">
          <mxGeometry relative="1" as="geometry" />
        </mxCell>
        <mxCell id="3r4ACdRN58zE3fDTOP2z-14" value="Tiene dudas" style="rhombus;whiteSpace=wrap;html=1;shadow=0;fontFamily=Helvetica;fontSize=12;align=center;strokeWidth=1;spacing=6;spacingTop=-4;" parent="WIyWlLk6GJQsqaUBKTNV-1" vertex="1">
          <mxGeometry x="180" y="800" width="100" height="80" as="geometry" />
        </mxCell>
        <mxCell id="3" style="edgeStyle=none;html=1;exitX=0.5;exitY=0;exitDx=0;exitDy=0;entryX=0.5;entryY=1;entryDx=0;entryDy=0;" edge="1" parent="WIyWlLk6GJQsqaUBKTNV-1" source="3r4ACdRN58zE3fDTOP2z-15" target="2">
          <mxGeometry relative="1" as="geometry" />
        </mxCell>
        <mxCell id="3r4ACdRN58zE3fDTOP2z-15" value="Solucion duda" style="rounded=1;whiteSpace=wrap;html=1;fontSize=12;glass=0;strokeWidth=1;shadow=0;" parent="WIyWlLk6GJQsqaUBKTNV-1" vertex="1">
          <mxGeometry x="360" y="820" width="120" height="40" as="geometry" />
        </mxCell>
        <mxCell id="3r4ACdRN58zE3fDTOP2z-38" style="edgeStyle=orthogonalEdgeStyle;rounded=0;orthogonalLoop=1;jettySize=auto;html=1;exitX=0.5;exitY=1;exitDx=0;exitDy=0;entryX=0.5;entryY=0;entryDx=0;entryDy=0;" parent="WIyWlLk6GJQsqaUBKTNV-1" source="3r4ACdRN58zE3fDTOP2z-18" target="3r4ACdRN58zE3fDTOP2z-20" edge="1">
          <mxGeometry relative="1" as="geometry" />
        </mxCell>
        <mxCell id="3r4ACdRN58zE3fDTOP2z-18" value="Examen repaso" style="rounded=1;whiteSpace=wrap;html=1;fontSize=12;glass=0;strokeWidth=1;shadow=0;" parent="WIyWlLk6GJQsqaUBKTNV-1" vertex="1">
          <mxGeometry x="170" y="920" width="120" height="40" as="geometry" />
        </mxCell>
        <mxCell id="3r4ACdRN58zE3fDTOP2z-39" style="edgeStyle=orthogonalEdgeStyle;rounded=0;orthogonalLoop=1;jettySize=auto;html=1;exitX=1;exitY=0.5;exitDx=0;exitDy=0;entryX=0.5;entryY=1;entryDx=0;entryDy=0;" parent="WIyWlLk6GJQsqaUBKTNV-1" source="3r4ACdRN58zE3fDTOP2z-20" target="WIyWlLk6GJQsqaUBKTNV-7" edge="1">
          <mxGeometry relative="1" as="geometry">
            <mxPoint x="541" y="182" as="targetPoint" />
            <Array as="points">
              <mxPoint x="520" y="1040" />
            </Array>
          </mxGeometry>
        </mxCell>
        <mxCell id="3r4ACdRN58zE3fDTOP2z-42" style="edgeStyle=orthogonalEdgeStyle;rounded=0;orthogonalLoop=1;jettySize=auto;html=1;exitX=0;exitY=0.5;exitDx=0;exitDy=0;entryX=0;entryY=0.5;entryDx=0;entryDy=0;" parent="WIyWlLk6GJQsqaUBKTNV-1" source="3r4ACdRN58zE3fDTOP2z-20" target="3r4ACdRN58zE3fDTOP2z-9" edge="1">
          <mxGeometry relative="1" as="geometry">
            <Array as="points">
              <mxPoint x="120" y="1040" />
              <mxPoint x="120" y="740" />
            </Array>
          </mxGeometry>
        </mxCell>
        <mxCell id="3r4ACdRN58zE3fDTOP2z-20" value="Aprueba" style="rhombus;whiteSpace=wrap;html=1;shadow=0;fontFamily=Helvetica;fontSize=12;align=center;strokeWidth=1;spacing=6;spacingTop=-4;" parent="WIyWlLk6GJQsqaUBKTNV-1" vertex="1">
          <mxGeometry x="180" y="1000" width="100" height="80" as="geometry" />
        </mxCell>
        <mxCell id="3r4ACdRN58zE3fDTOP2z-46" style="edgeStyle=orthogonalEdgeStyle;rounded=0;orthogonalLoop=1;jettySize=auto;html=1;exitX=0.5;exitY=0;exitDx=0;exitDy=0;entryX=1;entryY=0.5;entryDx=0;entryDy=0;" parent="WIyWlLk6GJQsqaUBKTNV-1" source="3r4ACdRN58zE3fDTOP2z-43" target="3r4ACdRN58zE3fDTOP2z-45" edge="1">
          <mxGeometry relative="1" as="geometry" />
        </mxCell>
        <mxCell id="3r4ACdRN58zE3fDTOP2z-49" style="edgeStyle=orthogonalEdgeStyle;rounded=0;orthogonalLoop=1;jettySize=auto;html=1;exitX=0.5;exitY=1;exitDx=0;exitDy=0;entryX=0.832;entryY=0.984;entryDx=0;entryDy=0;entryPerimeter=0;horizontal=1;fontStyle=0;flowAnimation=0;shadow=0;" parent="WIyWlLk6GJQsqaUBKTNV-1" source="3r4ACdRN58zE3fDTOP2z-43" target="WIyWlLk6GJQsqaUBKTNV-7" edge="1">
          <mxGeometry relative="1" as="geometry">
            <Array as="points">
              <mxPoint x="680" y="240" />
              <mxPoint x="560" y="240" />
              <mxPoint x="560" y="179" />
            </Array>
          </mxGeometry>
        </mxCell>
        <mxCell id="3r4ACdRN58zE3fDTOP2z-43" value="necesita Tools" style="rhombus;whiteSpace=wrap;html=1;shadow=0;fontFamily=Helvetica;fontSize=12;align=center;strokeWidth=1;spacing=6;spacingTop=-4;" parent="WIyWlLk6GJQsqaUBKTNV-1" vertex="1">
          <mxGeometry x="630" y="120" width="100" height="80" as="geometry" />
        </mxCell>
        <mxCell id="3r4ACdRN58zE3fDTOP2z-47" style="edgeStyle=orthogonalEdgeStyle;rounded=0;orthogonalLoop=1;jettySize=auto;html=1;exitX=0.5;exitY=1;exitDx=0;exitDy=0;entryX=0.5;entryY=0;entryDx=0;entryDy=0;" parent="WIyWlLk6GJQsqaUBKTNV-1" source="3r4ACdRN58zE3fDTOP2z-45" target="WIyWlLk6GJQsqaUBKTNV-7" edge="1">
          <mxGeometry relative="1" as="geometry" />
        </mxCell>
        <mxCell id="3r4ACdRN58zE3fDTOP2z-45" value="Usar la Tool" style="rounded=1;whiteSpace=wrap;html=1;fontSize=12;glass=0;strokeWidth=1;shadow=0;" parent="WIyWlLk6GJQsqaUBKTNV-1" vertex="1">
          <mxGeometry x="460" y="40" width="120" height="40" as="geometry" />
        </mxCell>
        <mxCell id="3r4ACdRN58zE3fDTOP2z-53" value="libre" style="text;html=1;align=center;verticalAlign=middle;resizable=0;points=[];autosize=1;strokeColor=none;fillColor=none;" parent="WIyWlLk6GJQsqaUBKTNV-1" vertex="1">
          <mxGeometry x="330" y="128" width="50" height="30" as="geometry" />
        </mxCell>
        <mxCell id="3r4ACdRN58zE3fDTOP2z-54" value="guiado" style="text;html=1;align=center;verticalAlign=middle;resizable=0;points=[];autosize=1;strokeColor=none;fillColor=none;" parent="WIyWlLk6GJQsqaUBKTNV-1" vertex="1">
          <mxGeometry x="245" y="200" width="60" height="30" as="geometry" />
        </mxCell>
        <mxCell id="3r4ACdRN58zE3fDTOP2z-55" value="si" style="text;html=1;align=center;verticalAlign=middle;resizable=0;points=[];autosize=1;strokeColor=none;fillColor=none;" parent="WIyWlLk6GJQsqaUBKTNV-1" vertex="1">
          <mxGeometry x="285" y="320" width="30" height="30" as="geometry" />
        </mxCell>
        <mxCell id="3r4ACdRN58zE3fDTOP2z-57" value="si" style="text;html=1;align=center;verticalAlign=middle;resizable=0;points=[];autosize=1;strokeColor=none;fillColor=none;" parent="WIyWlLk6GJQsqaUBKTNV-1" vertex="1">
          <mxGeometry x="70" y="530" width="30" height="30" as="geometry" />
        </mxCell>
        <mxCell id="3r4ACdRN58zE3fDTOP2z-58" value="no" style="text;html=1;align=center;verticalAlign=middle;resizable=0;points=[];autosize=1;strokeColor=none;fillColor=none;" parent="WIyWlLk6GJQsqaUBKTNV-1" vertex="1">
          <mxGeometry x="245" y="400" width="40" height="30" as="geometry" />
        </mxCell>
        <mxCell id="3r4ACdRN58zE3fDTOP2z-59" value="no" style="text;html=1;align=center;verticalAlign=middle;resizable=0;points=[];autosize=1;strokeColor=none;fillColor=none;" parent="WIyWlLk6GJQsqaUBKTNV-1" vertex="1">
          <mxGeometry x="240" y="600" width="40" height="30" as="geometry" />
        </mxCell>
        <mxCell id="3r4ACdRN58zE3fDTOP2z-60" value="no" style="text;html=1;align=center;verticalAlign=middle;resizable=0;points=[];autosize=1;strokeColor=none;fillColor=none;" parent="WIyWlLk6GJQsqaUBKTNV-1" vertex="1">
          <mxGeometry x="245" y="880" width="40" height="30" as="geometry" />
        </mxCell>
        <mxCell id="3r4ACdRN58zE3fDTOP2z-61" value="no" style="text;html=1;align=center;verticalAlign=middle;resizable=0;points=[];autosize=1;strokeColor=none;fillColor=none;" parent="WIyWlLk6GJQsqaUBKTNV-1" vertex="1">
          <mxGeometry x="60" y="1010" width="40" height="30" as="geometry" />
        </mxCell>
        <mxCell id="3r4ACdRN58zE3fDTOP2z-62" value="si" style="text;html=1;align=center;verticalAlign=middle;resizable=0;points=[];autosize=1;strokeColor=none;fillColor=none;" parent="WIyWlLk6GJQsqaUBKTNV-1" vertex="1">
          <mxGeometry x="285" y="800" width="30" height="30" as="geometry" />
        </mxCell>
        <mxCell id="3r4ACdRN58zE3fDTOP2z-63" value="si" style="text;html=1;align=center;verticalAlign=middle;resizable=0;points=[];autosize=1;strokeColor=none;fillColor=none;" parent="WIyWlLk6GJQsqaUBKTNV-1" vertex="1">
          <mxGeometry x="290" y="1010" width="30" height="30" as="geometry" />
        </mxCell>
        <mxCell id="0" value="si" style="text;html=1;align=center;verticalAlign=middle;resizable=0;points=[];autosize=1;strokeColor=none;fillColor=none;" parent="WIyWlLk6GJQsqaUBKTNV-1" vertex="1">
          <mxGeometry x="690" y="90" width="30" height="30" as="geometry" />
        </mxCell>
        <mxCell id="1" value="no" style="text;html=1;align=center;verticalAlign=middle;resizable=0;points=[];autosize=1;strokeColor=none;fillColor=none;" parent="WIyWlLk6GJQsqaUBKTNV-1" vertex="1">
          <mxGeometry x="685" y="200" width="40" height="30" as="geometry" />
        </mxCell>
        <mxCell id="7" style="edgeStyle=none;html=1;exitX=0;exitY=0.5;exitDx=0;exitDy=0;" edge="1" parent="WIyWlLk6GJQsqaUBKTNV-1" source="2" target="3r4ACdRN58zE3fDTOP2z-9">
          <mxGeometry relative="1" as="geometry" />
        </mxCell>
        <mxCell id="2" value="otra duda?" style="rhombus;whiteSpace=wrap;html=1;shadow=0;fontFamily=Helvetica;fontSize=12;align=center;strokeWidth=1;spacing=6;spacingTop=-4;" vertex="1" parent="WIyWlLk6GJQsqaUBKTNV-1">
          <mxGeometry x="370" y="700" width="100" height="80" as="geometry" />
        </mxCell>
        <mxCell id="6" style="edgeStyle=none;html=1;exitX=1;exitY=0.5;exitDx=0;exitDy=0;entryX=0.912;entryY=0.041;entryDx=0;entryDy=0;entryPerimeter=0;" edge="1" parent="WIyWlLk6GJQsqaUBKTNV-1" source="2" target="3r4ACdRN58zE3fDTOP2z-15">
          <mxGeometry relative="1" as="geometry" />
        </mxCell>
        <mxCell id="8" value="si" style="text;html=1;align=center;verticalAlign=middle;resizable=0;points=[];autosize=1;strokeColor=none;fillColor=none;" vertex="1" parent="WIyWlLk6GJQsqaUBKTNV-1">
          <mxGeometry x="470" y="760" width="30" height="30" as="geometry" />
        </mxCell>
        <mxCell id="9" value="no" style="text;html=1;align=center;verticalAlign=middle;resizable=0;points=[];autosize=1;strokeColor=none;fillColor=none;" vertex="1" parent="WIyWlLk6GJQsqaUBKTNV-1">
          <mxGeometry x="315" y="700" width="40" height="30" as="geometry" />
        </mxCell>
      </root>
    </mxGraphModel>
  </diagram>
  <diagram name="Copia de Page-1" id="ndyFYLrpEeX8REXX5cGQ">
    <mxGraphModel dx="1432" dy="321" grid="1" gridSize="10" guides="1" tooltips="1" connect="1" arrows="1" fold="1" page="1" pageScale="1" pageWidth="827" pageHeight="1169" math="0" shadow="0">
      <root>
        <mxCell id="nPlxMvcwdfv9gwZQZvRh-0" />
        <mxCell id="nPlxMvcwdfv9gwZQZvRh-1" parent="nPlxMvcwdfv9gwZQZvRh-0" />
        <mxCell id="q2a0cmn3yJvYGw72E078-50" value="" style="rounded=0;whiteSpace=wrap;html=1;fillColor=default;strokeColor=none;" vertex="1" parent="nPlxMvcwdfv9gwZQZvRh-1">
          <mxGeometry x="-650" y="20" width="480" height="940" as="geometry" />
        </mxCell>
        <mxCell id="q2a0cmn3yJvYGw72E078-3" style="edgeStyle=orthogonalEdgeStyle;rounded=0;orthogonalLoop=1;jettySize=auto;html=1;entryX=0.5;entryY=0;entryDx=0;entryDy=0;" edge="1" parent="nPlxMvcwdfv9gwZQZvRh-1" source="q2a0cmn3yJvYGw72E078-0" target="q2a0cmn3yJvYGw72E078-1">
          <mxGeometry relative="1" as="geometry" />
        </mxCell>
        <mxCell id="q2a0cmn3yJvYGw72E078-0" value="Inicio" style="rounded=1;whiteSpace=wrap;html=1;arcSize=50;" vertex="1" parent="nPlxMvcwdfv9gwZQZvRh-1">
          <mxGeometry x="-475" y="36.5" width="150" height="47" as="geometry" />
        </mxCell>
        <mxCell id="q2a0cmn3yJvYGw72E078-7" style="edgeStyle=orthogonalEdgeStyle;rounded=0;orthogonalLoop=1;jettySize=auto;html=1;exitX=0;exitY=0.5;exitDx=0;exitDy=0;entryX=0.5;entryY=0;entryDx=0;entryDy=0;" edge="1" parent="nPlxMvcwdfv9gwZQZvRh-1" source="q2a0cmn3yJvYGw72E078-1" target="q2a0cmn3yJvYGw72E078-6">
          <mxGeometry relative="1" as="geometry" />
        </mxCell>
        <mxCell id="q2a0cmn3yJvYGw72E078-8" value="Guiado" style="edgeLabel;html=1;align=center;verticalAlign=middle;resizable=0;points=[];" vertex="1" connectable="0" parent="q2a0cmn3yJvYGw72E078-7">
          <mxGeometry x="0.2028" relative="1" as="geometry">
            <mxPoint as="offset" />
          </mxGeometry>
        </mxCell>
        <mxCell id="q2a0cmn3yJvYGw72E078-10" style="edgeStyle=orthogonalEdgeStyle;rounded=0;orthogonalLoop=1;jettySize=auto;html=1;entryX=0.5;entryY=0;entryDx=0;entryDy=0;exitX=1;exitY=0.5;exitDx=0;exitDy=0;" edge="1" parent="nPlxMvcwdfv9gwZQZvRh-1" source="q2a0cmn3yJvYGw72E078-1">
          <mxGeometry relative="1" as="geometry">
            <mxPoint x="-300" y="240" as="targetPoint" />
          </mxGeometry>
        </mxCell>
        <mxCell id="q2a0cmn3yJvYGw72E078-17" value="Libre" style="edgeLabel;html=1;align=center;verticalAlign=middle;resizable=0;points=[];" vertex="1" connectable="0" parent="q2a0cmn3yJvYGw72E078-10">
          <mxGeometry x="0.3071" relative="1" as="geometry">
            <mxPoint as="offset" />
          </mxGeometry>
        </mxCell>
        <mxCell id="q2a0cmn3yJvYGw72E078-1" value="Selección&lt;div&gt;de modo&lt;/div&gt;" style="rhombus;whiteSpace=wrap;html=1;shadow=0;fontFamily=Helvetica;fontSize=12;align=center;strokeWidth=1;spacing=6;spacingTop=-4;" vertex="1" parent="nPlxMvcwdfv9gwZQZvRh-1">
          <mxGeometry x="-450" y="120" width="100" height="80" as="geometry" />
        </mxCell>
        <mxCell id="q2a0cmn3yJvYGw72E078-27" style="edgeStyle=orthogonalEdgeStyle;rounded=0;orthogonalLoop=1;jettySize=auto;html=1;entryX=0.5;entryY=0;entryDx=0;entryDy=0;" edge="1" parent="nPlxMvcwdfv9gwZQZvRh-1" source="q2a0cmn3yJvYGw72E078-6" target="q2a0cmn3yJvYGw72E078-25">
          <mxGeometry relative="1" as="geometry" />
        </mxCell>
        <mxCell id="q2a0cmn3yJvYGw72E078-6" value="Genera examen&lt;div&gt;de nivel&lt;/div&gt;" style="rounded=0;whiteSpace=wrap;html=1;" vertex="1" parent="nPlxMvcwdfv9gwZQZvRh-1">
          <mxGeometry x="-580" y="240" width="120" height="60" as="geometry" />
        </mxCell>
        <mxCell id="q2a0cmn3yJvYGw72E078-14" style="edgeStyle=orthogonalEdgeStyle;rounded=0;orthogonalLoop=1;jettySize=auto;html=1;entryX=1;entryY=0.5;entryDx=0;entryDy=0;exitX=1;exitY=0.5;exitDx=0;exitDy=0;" edge="1" parent="nPlxMvcwdfv9gwZQZvRh-1" source="q2a0cmn3yJvYGw72E078-11" target="q2a0cmn3yJvYGw72E078-12">
          <mxGeometry relative="1" as="geometry">
            <Array as="points">
              <mxPoint x="-190" y="370" />
              <mxPoint x="-190" y="270" />
            </Array>
          </mxGeometry>
        </mxCell>
        <mxCell id="q2a0cmn3yJvYGw72E078-11" value="Responde la pregunta" style="rounded=0;whiteSpace=wrap;html=1;" vertex="1" parent="nPlxMvcwdfv9gwZQZvRh-1">
          <mxGeometry x="-340" y="340" width="120" height="60" as="geometry" />
        </mxCell>
        <mxCell id="q2a0cmn3yJvYGw72E078-13" style="edgeStyle=orthogonalEdgeStyle;rounded=0;orthogonalLoop=1;jettySize=auto;html=1;entryX=0.5;entryY=0;entryDx=0;entryDy=0;" edge="1" parent="nPlxMvcwdfv9gwZQZvRh-1" source="q2a0cmn3yJvYGw72E078-12" target="q2a0cmn3yJvYGw72E078-11">
          <mxGeometry relative="1" as="geometry" />
        </mxCell>
        <mxCell id="q2a0cmn3yJvYGw72E078-12" value="Realiza una&lt;div&gt;pregunta&lt;/div&gt;" style="shape=parallelogram;perimeter=parallelogramPerimeter;whiteSpace=wrap;html=1;fixedSize=1;" vertex="1" parent="nPlxMvcwdfv9gwZQZvRh-1">
          <mxGeometry x="-340" y="240" width="120" height="60" as="geometry" />
        </mxCell>
        <mxCell id="q2a0cmn3yJvYGw72E078-18" style="edgeStyle=orthogonalEdgeStyle;rounded=0;orthogonalLoop=1;jettySize=auto;html=1;entryX=0;entryY=0.5;entryDx=0;entryDy=0;exitX=1;exitY=0.5;exitDx=0;exitDy=0;" edge="1" parent="nPlxMvcwdfv9gwZQZvRh-1" source="q2a0cmn3yJvYGw72E078-15" target="q2a0cmn3yJvYGw72E078-12">
          <mxGeometry relative="1" as="geometry">
            <Array as="points">
              <mxPoint x="-400" y="580" />
              <mxPoint x="-400" y="270" />
            </Array>
          </mxGeometry>
        </mxCell>
        <mxCell id="q2a0cmn3yJvYGw72E078-19" value="Sí" style="edgeLabel;html=1;align=center;verticalAlign=middle;resizable=0;points=[];" vertex="1" connectable="0" parent="q2a0cmn3yJvYGw72E078-18">
          <mxGeometry x="-0.7941" y="-3" relative="1" as="geometry">
            <mxPoint x="-17" y="-3" as="offset" />
          </mxGeometry>
        </mxCell>
        <mxCell id="q2a0cmn3yJvYGw72E078-30" style="edgeStyle=orthogonalEdgeStyle;rounded=0;orthogonalLoop=1;jettySize=auto;html=1;entryX=0.5;entryY=0;entryDx=0;entryDy=0;" edge="1" parent="nPlxMvcwdfv9gwZQZvRh-1" source="q2a0cmn3yJvYGw72E078-15" target="q2a0cmn3yJvYGw72E078-29">
          <mxGeometry relative="1" as="geometry" />
        </mxCell>
        <mxCell id="q2a0cmn3yJvYGw72E078-32" value="No" style="edgeLabel;html=1;align=center;verticalAlign=middle;resizable=0;points=[];" vertex="1" connectable="0" parent="q2a0cmn3yJvYGw72E078-30">
          <mxGeometry x="-0.3056" relative="1" as="geometry">
            <mxPoint y="1" as="offset" />
          </mxGeometry>
        </mxCell>
        <mxCell id="q2a0cmn3yJvYGw72E078-15" value="¿Aprobó&lt;div&gt;todos los niveles?&lt;/div&gt;" style="rhombus;whiteSpace=wrap;html=1;shadow=0;fontFamily=Helvetica;fontSize=12;align=center;strokeWidth=1;spacing=6;spacingTop=-4;" vertex="1" parent="nPlxMvcwdfv9gwZQZvRh-1">
          <mxGeometry x="-570" y="540" width="100" height="80" as="geometry" />
        </mxCell>
        <mxCell id="q2a0cmn3yJvYGw72E078-24" style="edgeStyle=orthogonalEdgeStyle;rounded=0;orthogonalLoop=1;jettySize=auto;html=1;entryX=0.5;entryY=0;entryDx=0;entryDy=0;" edge="1" parent="nPlxMvcwdfv9gwZQZvRh-1" source="q2a0cmn3yJvYGw72E078-20" target="q2a0cmn3yJvYGw72E078-15">
          <mxGeometry relative="1" as="geometry" />
        </mxCell>
        <mxCell id="q2a0cmn3yJvYGw72E078-20" value="Genera feedback del examen" style="rounded=0;whiteSpace=wrap;html=1;" vertex="1" parent="nPlxMvcwdfv9gwZQZvRh-1">
          <mxGeometry x="-580" y="440" width="120" height="60" as="geometry" />
        </mxCell>
        <mxCell id="q2a0cmn3yJvYGw72E078-26" style="edgeStyle=orthogonalEdgeStyle;rounded=0;orthogonalLoop=1;jettySize=auto;html=1;entryX=0.5;entryY=0;entryDx=0;entryDy=0;" edge="1" parent="nPlxMvcwdfv9gwZQZvRh-1" source="q2a0cmn3yJvYGw72E078-25" target="q2a0cmn3yJvYGw72E078-20">
          <mxGeometry relative="1" as="geometry" />
        </mxCell>
        <mxCell id="q2a0cmn3yJvYGw72E078-25" value="Responde el&lt;div&gt;examen&lt;/div&gt;" style="shape=parallelogram;perimeter=parallelogramPerimeter;whiteSpace=wrap;html=1;fixedSize=1;" vertex="1" parent="nPlxMvcwdfv9gwZQZvRh-1">
          <mxGeometry x="-580" y="340" width="120" height="60" as="geometry" />
        </mxCell>
        <mxCell id="q2a0cmn3yJvYGw72E078-31" style="edgeStyle=orthogonalEdgeStyle;rounded=0;orthogonalLoop=1;jettySize=auto;html=1;exitX=0;exitY=0.5;exitDx=0;exitDy=0;entryX=0;entryY=0.75;entryDx=0;entryDy=0;" edge="1" parent="nPlxMvcwdfv9gwZQZvRh-1" source="q2a0cmn3yJvYGw72E078-29" target="q2a0cmn3yJvYGw72E078-6">
          <mxGeometry relative="1" as="geometry">
            <Array as="points">
              <mxPoint x="-610" y="700" />
              <mxPoint x="-610" y="285" />
            </Array>
          </mxGeometry>
        </mxCell>
        <mxCell id="q2a0cmn3yJvYGw72E078-33" value="Sí" style="edgeLabel;html=1;align=center;verticalAlign=middle;resizable=0;points=[];" vertex="1" connectable="0" parent="q2a0cmn3yJvYGw72E078-31">
          <mxGeometry x="-0.8901" relative="1" as="geometry">
            <mxPoint x="9" as="offset" />
          </mxGeometry>
        </mxCell>
        <mxCell id="q2a0cmn3yJvYGw72E078-35" style="edgeStyle=orthogonalEdgeStyle;rounded=0;orthogonalLoop=1;jettySize=auto;html=1;entryX=0.5;entryY=0;entryDx=0;entryDy=0;" edge="1" parent="nPlxMvcwdfv9gwZQZvRh-1" source="q2a0cmn3yJvYGw72E078-29" target="q2a0cmn3yJvYGw72E078-34">
          <mxGeometry relative="1" as="geometry" />
        </mxCell>
        <mxCell id="q2a0cmn3yJvYGw72E078-29" value="¿Quiere&lt;div&gt;repetir el&lt;/div&gt;&lt;div&gt;examen?&lt;/div&gt;" style="rhombus;whiteSpace=wrap;html=1;shadow=0;fontFamily=Helvetica;fontSize=12;align=center;strokeWidth=1;spacing=6;spacingTop=-4;" vertex="1" parent="nPlxMvcwdfv9gwZQZvRh-1">
          <mxGeometry x="-570" y="660" width="100" height="80" as="geometry" />
        </mxCell>
        <mxCell id="q2a0cmn3yJvYGw72E078-37" style="edgeStyle=orthogonalEdgeStyle;rounded=0;orthogonalLoop=1;jettySize=auto;html=1;entryX=0.5;entryY=0;entryDx=0;entryDy=0;" edge="1" parent="nPlxMvcwdfv9gwZQZvRh-1" source="q2a0cmn3yJvYGw72E078-34" target="q2a0cmn3yJvYGw72E078-36">
          <mxGeometry relative="1" as="geometry" />
        </mxCell>
        <mxCell id="q2a0cmn3yJvYGw72E078-34" value="Genera plan de estudios" style="rounded=0;whiteSpace=wrap;html=1;" vertex="1" parent="nPlxMvcwdfv9gwZQZvRh-1">
          <mxGeometry x="-580" y="780" width="120" height="60" as="geometry" />
        </mxCell>
        <mxCell id="q2a0cmn3yJvYGw72E078-38" style="edgeStyle=orthogonalEdgeStyle;rounded=0;orthogonalLoop=1;jettySize=auto;html=1;entryX=0;entryY=0.25;entryDx=0;entryDy=0;" edge="1" parent="nPlxMvcwdfv9gwZQZvRh-1" source="q2a0cmn3yJvYGw72E078-36" target="q2a0cmn3yJvYGw72E078-6">
          <mxGeometry relative="1" as="geometry">
            <Array as="points">
              <mxPoint x="-630" y="910" />
              <mxPoint x="-630" y="255" />
            </Array>
          </mxGeometry>
        </mxCell>
        <mxCell id="q2a0cmn3yJvYGw72E078-36" value="Explicación tema a tema" style="rounded=0;whiteSpace=wrap;html=1;" vertex="1" parent="nPlxMvcwdfv9gwZQZvRh-1">
          <mxGeometry x="-580" y="880" width="120" height="60" as="geometry" />
        </mxCell>
      </root>
    </mxGraphModel>
  </diagram>
</mxfile>
